<svg xmlns="http://www.w3.org/2000/svg" xmlns:xlink="http://www.w3.org/1999/xlink" version="1.1" viewBox="8 575 232 240">
   <path fill="currentColor" d="M212 683v-12l-4 -8v-8l-4 -8v-4l-8 -16l-8 -8l-16 -8h-4l-8 -4h-8l-8 -4h-40l-8 4h-8l-8 4h-4l-16 8l-8 8l-8 16v4l-4 8v8l-4 8v12h176zM104 815l-8 -4h-8l-8 -4h-4l-32 -16l-16 -16l-12 -24v-8l-4 -8v-8l-4 -8v-48l4 -8v-8l4 -8v-8l12 -24l16 -16l32 -16h4l8 -4h8l8 -4 h40l8 4h8l8 4h4l32 16l16 16l12 24v8l4 8v8l4 8v20l-4 8l-4 4l-8 4h-188v12l4 8v8l4 8v4l8 16l8 8l16 8h4l8 4h8l8 4h8l8 4h52l8 -4h8l8 -4h8l8 -4h4l4 -4h4q1 0 2 2q2 1 2 2v20l-4 4l-8 4h-4l-8 4h-8l-8 4h-84z"/>
</svg>