<svg xmlns="http://www.w3.org/2000/svg" xmlns:xlink="http://www.w3.org/1999/xlink" version="1.1" viewBox="-12 419 236 396">
   <path fill="currentColor" d="M52 815q-2 0 -3 -1t-1 -3v-220q0 -1 -2 -2q-1 -2 -2 -2h-52q-1 0 -2 -1q-2 -1 -2 -3v-16q0 -1 2 -2q1 -2 2 -2h52q1 0 2 -1q2 -1 2 -3v-44l4 -8v-8l4 -8v-8l12 -24l16 -16l32 -16h4l8 -4h8l8 -4h40l8 4h8l8 4h4l8 4l4 4v20q0 2 -2 3q-1 1 -2 1h-4l-4 -4h-4l-8 -4h-8 l-8 -4h-40l-8 4h-8l-8 4h-4l-16 8l-8 8l-8 16v4l-4 8v8l-4 8v8l-4 8v28q0 2 1 3t3 1h64q1 0 2 2q2 1 2 2v16q0 2 -2 3q-1 1 -2 1h-64q-2 0 -3 2q-1 1 -1 2v220q0 2 -2 3q-1 1 -2 1h-16z"/>
</svg>