<svg xmlns="http://www.w3.org/2000/svg" xmlns:xlink="http://www.w3.org/1999/xlink" version="1.1" viewBox="8 419 284 396">
   <path fill="currentColor" d="M152 815l-8 -4h-8l-8 -4h-4l-32 -16l-36 -36l-4 -8l-4 -4l-4 -8l-4 -4l-16 -32v-4l-4 -8v-4l-8 -16v-12l-4 -8v-60l4 -8v-12l8 -16v-4l4 -8v-4l16 -32l4 -4l4 -8l4 -4l4 -8l36 -36l32 -16h4l8 -4h8l8 -4h40l8 4h8l8 4h4l32 16l40 40v8q0 2 -2 3q-1 1 -2 1h-20l-32 -32 l-16 -8h-4l-8 -4h-8l-8 -4h-40l-8 4h-8l-8 4h-4l-16 8l-28 28l-4 8l-4 4l-4 8l-4 4l-16 32v4l-4 8v4l-8 16v76l8 16v4l4 8v4l16 32l4 4l4 8l4 4l4 8l28 28l16 8h4l8 4h8l8 4h40l8 -4h8l8 -4h4l16 -8l28 -28l4 -8v-84q0 -1 -2 -2q-1 -2 -2 -2h-88q-2 0 -3 2q-1 1 -1 2v8 q0 2 -2 3q-1 1 -2 1h-16q-2 0 -3 -1t-1 -3v-32q0 -1 1 -2q1 -2 3 -2h136q1 0 2 2q2 1 2 2v120l-4 8l-36 36l-32 16h-4l-8 4h-8l-8 4h-40z"/>
</svg>