<svg xmlns="http://www.w3.org/2000/svg" xmlns:xlink="http://www.w3.org/1999/xlink" version="1.1" viewBox="-96 495 220 484">
   <path fill="currentColor" d="M-56 979l-8 -4h-8l-8 -4h-4l-8 -4l-4 -4v-20q0 -2 2 -3q1 -1 2 -1h4l4 4h4l8 4h8l8 4h8l8 4h52l8 -4h8l8 -4h8l8 -4h4l16 -8l8 -8l8 -16v-4l4 -8v-8l4 -8v-4l4 -8v-292q0 -1 1 -2q1 -2 3 -2h16q1 0 2 2q2 1 2 2v304l-4 8v8l-4 8v8l-12 24l-16 16l-32 16h-4l-8 4h-8l-8 4 h-84zM104 539q-2 0 -3 -1t-1 -3v-36q0 -1 1 -2q1 -2 3 -2h16q1 0 2 2q2 1 2 2v36q0 2 -2 3q-1 1 -2 1h-16z"/>
</svg>