<?xml version="1.0" standalone="no"?>
<!DOCTYPE svg PUBLIC "-//W3C//DTD SVG 1.1//EN" "http://www.w3.org/Graphics/SVG/1.1/DTD/svg11.dtd" >
<svg xmlns="http://www.w3.org/2000/svg" xmlns:xlink="http://www.w3.org/1999/xlink" version="1.1" viewBox="-10 0 274 1024">
   <path fill="currentColor"
d="M12 815q-2 0 -3 -1t-1 -3v-388q0 -1 1 -2q1 -2 3 -2h16q1 0 2 2q2 1 2 2v164l48 -48l4 -8l112 -112h16q1 0 2 2q2 1 2 2v16l-112 112l-4 8l-58 58l58 58l4 8l112 112v16q0 2 -2 3q-1 1 -2 1h-16l-112 -112l-4 -8l-48 -48v164q0 2 -2 3q-1 1 -2 1h-16z" />
</svg>
