<svg xmlns="http://www.w3.org/2000/svg" xmlns:xlink="http://www.w3.org/1999/xlink" version="1.1" viewBox="8 419 232 396">
   <path fill="currentColor" d="M12 815q-2 0 -3 -1t-1 -3v-388q0 -1 1 -2q1 -2 3 -2h16q1 0 2 2q2 1 2 2v24l4 8l4 4l4 8l4 4l4 8l4 4l4 8l4 4l4 8l4 4l4 8l4 4l4 8l4 4l4 8l4 4l8 16l4 4l8 16l4 4l4 8l4 4l8 16l4 4l8 16l4 4l8 16l4 4l8 16l4 4l8 16l4 4l8 16l4 4l4 8l8 8l4 8v-316q0 -1 1 -2 q1 -2 3 -2h16q1 0 2 2q2 1 2 2v388q0 2 -2 3q-1 1 -2 1h-16q-2 0 -3 -1t-1 -3v-16l-12 -24l-4 -4l-8 -16l-4 -4l-8 -16l-4 -4l-12 -24l-4 -4l-8 -16l-4 -4l-8 -16l-4 -4l-8 -16l-4 -4l-8 -16l-4 -4l-8 -16l-4 -4l-4 -8l-4 -4l-8 -16l-4 -4l-8 -16l-4 -4l-8 -16l-4 -4l-8 -16 l-4 -4l-8 -16l-4 -4v324q0 2 -2 3q-1 1 -2 1h-16z"/>
</svg>