<?xml version="1.0" standalone="no"?>
<!DOCTYPE svg PUBLIC "-//W3C//DTD SVG 1.1//EN" "http://www.w3.org/Graphics/SVG/1.1/DTD/svg11.dtd" >
<svg xmlns="http://www.w3.org/2000/svg" xmlns:xlink="http://www.w3.org/1999/xlink" version="1.1" viewBox="-10 0 298 1024">
   <path fill="currentColor"
d="M36 815l-20 -20v-24q0 -1 1 -2q1 -2 3 -2l24 24h84l8 -4h8l8 -4h8l8 -4h4l16 -8l8 -8l8 -16v-4l4 -8v-8l4 -8v-8l4 -8v-16l-4 -8v-8l-4 -8v-8l-4 -8l-8 -8l-16 -8h-128l-24 -12l-12 -24v-8l-4 -8v-8l-4 -8v-48l4 -8v-8l4 -8v-8l12 -24l16 -16l32 -16h4l8 -4h8l8 -4h108
l20 20v24q0 2 -2 3q-1 1 -2 1l-24 -24h-84l-8 4h-8l-8 4h-8l-8 4h-4l-16 8l-8 8l-8 16v4l-4 8v8l-4 8v8l-4 8v16l4 8v8l4 8v8l4 8l8 8l16 8h128l24 12l12 24v8l4 8v8l4 8v48l-4 8v8l-4 8v8l-12 24l-16 16l-32 16h-4l-8 4h-8l-8 4h-108z" />
</svg>
