<?xml version="1.0" standalone="no"?>
<!DOCTYPE svg PUBLIC "-//W3C//DTD SVG 1.1//EN" "http://www.w3.org/Graphics/SVG/1.1/DTD/svg11.dtd" >
<svg xmlns="http://www.w3.org/2000/svg" xmlns:xlink="http://www.w3.org/1999/xlink" version="1.1" viewBox="-10 0 502 1024">
   <path fill="currentColor"
d="M120 815l-12 -12l-12 -24v-4l-4 -8v-4l-4 -8v-4l-4 -8v-4l-4 -8v-4l-4 -8v-4l-2 -4v-4l-2 -4v-4l-2 -4v-4l-2 -4v-4l-2 -4v-4l-2 -4v-4l-2 -4v-4l-2 -4v-4l-2 -4v-4l-2 -4v-4l-2 -4v-4l-2 -4v-4l-2 -4v-4l-2 -4v-4l-2 -4v-4l-2 -4v-4l-2 -4v-4l-2 -4v-4l-2 -4v-4l-2 -4
v-4l-2 -4v-4l-2 -4v-4l-2 -4v-4l-2 -4v-4l-2 -4v-4l-2 -4v-4l-2 -4v-4l-2 -4v-4l-2 -4v-4l-2 -4v-4l-2 -4v-4l-2 -4v-4l-4 -8v-28q0 -1 1 -2q1 -2 3 -2h16l4 4l4 8v4l2 4v4l2 4v4l2 4v4l2 4v4l2 4v4l2 4v8l2 4v4l2 4v4l2 4v4l2 4v4l2 4v4l2 4v4l2 4v4l2 4v4l2 4v8l2 4v4l2 4
v4l2 4v4l2 4v4l2 4v4l2 4v4l2 4v4l2 4v8l2 4v4l2 4v4l2 4v4l2 4v4l2 4v4l2 4v4l2 4v4l2 4v12l2 4v4l2 4v4l2 4v4l4 8v4l2 4v4l2 4v4l2 4v4l2 4v4l8 16l8 -16v-4l2 -4v-4l2 -4v-4l2 -4v-4l2 -4v-4l4 -8v-4l2 -4v-4l2 -4v-4l2 -4v-12l2 -4v-4l2 -4v-4l2 -4v-4l2 -4v-4l2 -4v-4
l2 -4v-4l2 -4v-4l2 -4v-8l2 -4v-4l2 -4v-4l2 -4v-4l2 -4v-4l2 -4v-4l2 -4v-4l2 -4v-4l2 -4v-8l2 -4v-4l2 -4v-4l2 -4v-4l2 -4v-4l2 -4v-4l2 -4v-4l2 -4v-4l2 -4v-4l2 -4v-8l2 -4v-4l2 -4v-4l2 -4v-4l2 -4v-4l2 -4v-4l2 -4v-4l4 -8l4 -4h20l4 4l4 8v4l2 4v4l2 4v4l2 4v4l2 4
v4l2 4v4l2 4v8l2 4v4l2 4v4l2 4v4l2 4v4l2 4v4l2 4v4l2 4v4l2 4v4l2 4v8l2 4v4l2 4v4l2 4v4l2 4v4l2 4v4l2 4v4l2 4v4l2 4v8l2 4v4l2 4v4l2 4v4l2 4v4l2 4v4l2 4v4l2 4v4l2 4v12l2 4v4l2 4v4l2 4v4l4 8v4l2 4v4l2 4v4l2 4v4l2 4v4l8 16l8 -16v-4l2 -4v-4l2 -4v-4l2 -4v-4
l2 -4v-4l4 -8v-4l2 -4v-4l2 -4v-4l2 -4v-12l2 -4v-4l2 -4v-4l2 -4v-4l2 -4v-4l2 -4v-4l2 -4v-4l2 -4v-4l2 -4v-8l2 -4v-4l2 -4v-4l2 -4v-4l2 -4v-4l2 -4v-4l2 -4v-4l2 -4v-4l2 -4v-8l2 -4v-4l2 -4v-4l2 -4v-4l2 -4v-4l2 -4v-4l2 -4v-4l2 -4v-4l2 -4v-4l2 -4v-8l2 -4v-4l2 -4
v-4l2 -4v-4l2 -4v-4l2 -4v-4l2 -4v-4l4 -8l4 -4h16q1 0 2 2q2 1 2 2v28l-4 8v4l-2 4v4l-2 4v4l-2 4v4l-2 4v4l-2 4v4l-2 4v4l-2 4v4l-2 4v4l-2 4v4l-2 4v4l-2 4v4l-2 4v4l-2 4v4l-2 4v4l-2 4v4l-2 4v4l-2 4v4l-2 4v4l-2 4v4l-2 4v4l-2 4v4l-2 4v4l-2 4v4l-2 4v4l-2 4v4l-2 4
v4l-2 4v4l-2 4v4l-2 4v4l-2 4v4l-2 4v4l-2 4v4l-4 8v4l-4 8v4l-4 8v4l-4 8v4l-4 8v4l-12 24l-12 12h-8l-12 -12l-12 -24v-4l-4 -8v-4l-4 -8v-4l-4 -8v-4l-4 -8v-4l-4 -8v-4l-2 -4v-4l-2 -4v-4l-2 -4v-4l-2 -4v-4l-2 -4v-4l-2 -4v-4l-2 -4v-4l-2 -4v-4l-2 -4v-4l-2 -4v-4
l-2 -4v-4l-2 -4v-4l-2 -4v-4l-2 -4v-4l-2 -4v-4l-2 -4v-4l-2 -4v-4l-2 -4v-4l-2 -4v-4l-2 -4v-4l-2 -4v-4l-2 -4v-4l-2 -4v-4l-2 -4v-4l-2 -4v-4l-2 -4v-4l-2 -4v-4l-2 -4v-4l-2 -2l-2 2v4l-2 4v4l-2 4v4l-2 4v4l-2 4v4l-2 4v4l-2 4v4l-2 4v4l-2 4v4l-2 4v4l-2 4v4l-2 4v4
l-2 4v4l-2 4v4l-2 4v4l-2 4v4l-2 4v4l-2 4v4l-2 4v4l-2 4v4l-2 4v4l-2 4v4l-2 4v4l-2 4v4l-2 4v4l-2 4v4l-2 4v4l-2 4v4l-2 4v4l-4 8v4l-4 8v4l-4 8v4l-4 8v4l-4 8v4l-12 24l-12 12h-8z" />
</svg>
