<?xml version="1.0" standalone="no"?>
<!DOCTYPE svg PUBLIC "-//W3C//DTD SVG 1.1//EN" "http://www.w3.org/Graphics/SVG/1.1/DTD/svg11.dtd" >
<svg xmlns="http://www.w3.org/2000/svg" xmlns:xlink="http://www.w3.org/1999/xlink" version="1.1" viewBox="-10 0 298 1024">
   <path fill="currentColor"
d="M8 815q-2 0 -3 -1t-1 -3v-16l4 -4l16 -32l8 -8l12 -24l4 -4l20 -40l4 -4l12 -24l4 -4l12 -24l4 -4l4 -8l-4 -8l-4 -4l-12 -24l-4 -4l-12 -24l-4 -4l-20 -40l-4 -4l-12 -24l-8 -8l-16 -32v-16q0 -1 1 -2q1 -2 3 -2h16l4 4l16 32l8 8l12 24l4 4l52 104l52 -104l4 -4l12 -24
l8 -8l16 -32l4 -4h16q1 0 2 2q2 1 2 2v16l-16 32l-8 8l-12 24l-4 4l-20 40l-4 4l-12 24l-4 4l-12 24l-4 4l-4 8l4 8l4 4l12 24l4 4l12 24l4 4l20 40l4 4l12 24l8 8l16 32l4 4v16q0 2 -2 3q-1 1 -2 1h-20l-20 -40l-8 -8l-12 -24l-4 -4l-52 -104l-52 104l-4 4l-12 24l-8 8
l-20 40h-20z" />
</svg>
