<svg xmlns="http://www.w3.org/2000/svg" xmlns:xlink="http://www.w3.org/1999/xlink" version="1.1" viewBox="8 575 232 404">
   <path fill="currentColor" d="M60 979l-8 -4h-8l-8 -4h-4l-8 -4l-4 -4v-20q0 -2 1 -3t3 -1h4l4 4h4l8 4h8l8 4h8l8 4h52l8 -4h8l8 -4h8l8 -4h4l16 -8l8 -8l8 -16v-4l4 -8v-8l4 -8v-8l4 -8v-88l-12 12l-32 16h-4l-8 4h-8l-8 4h-40l-8 -4h-8l-8 -4h-4l-32 -16l-16 -16l-12 -24v-8l-4 -8v-8l-4 -8v-140 q0 -1 1 -2q1 -2 3 -2h16q1 0 2 2q2 1 2 2v124l4 8v8l4 8v8l4 8v4l8 16l8 8l16 8h4l8 4h8l8 4h40l8 -4h8l8 -4h4l16 -8l8 -8l8 -16v-4l4 -8v-8l4 -8v-8l4 -8v-124q0 -1 1 -2q1 -2 3 -2h16q1 0 2 2q2 1 2 2v304l-4 8v8l-4 8v8l-12 24l-16 16l-32 16h-4l-8 4h-8l-8 4h-84z"/>
</svg>