<?xml version="1.0" standalone="no"?>
<!DOCTYPE svg PUBLIC "-//W3C//DTD SVG 1.1//EN" "http://www.w3.org/Graphics/SVG/1.1/DTD/svg11.dtd" >
<svg xmlns="http://www.w3.org/2000/svg" xmlns:xlink="http://www.w3.org/1999/xlink" version="1.1" viewBox="-10 0 298 1024">
   <path fill="currentColor"
d="M12 815q-2 0 -3 -1t-1 -3v-20l76 -76l8 -4l40 -40l8 -4l44 -44l8 -4l20 -20h-200q-2 0 -3 -1t-1 -3v-16q0 -1 1 -2q1 -2 3 -2h224q1 0 2 2q2 1 2 2v20l-76 76l-8 4l-40 40l-8 4l-44 44l-8 4l-20 20h200q1 0 2 2q2 1 2 2v16q0 2 -2 3q-1 1 -2 1h-224z" />
</svg>
