<?xml version="1.0" standalone="no"?>
<!DOCTYPE svg PUBLIC "-//W3C//DTD SVG 1.1//EN" "http://www.w3.org/Graphics/SVG/1.1/DTD/svg11.dtd" >
<svg xmlns="http://www.w3.org/2000/svg" xmlns:xlink="http://www.w3.org/1999/xlink" version="1.1" viewBox="-10 0 286 1024">
   <path fill="currentColor"
d="M168 607l-4 -8v-4l-2 -4v-4l-2 -4v-4l-2 -4v-4l-2 -4v-4l-2 -4v-4l-2 -4v-4l-2 -4v-12l-2 -4v-4l-2 -4v-4l-2 -4v-4l-4 -8v-4l-2 -4v-4l-2 -4v-4l-2 -4v-4l-2 -4v-4l-8 -16l-8 16v4l-2 4v4l-2 4v4l-2 4v4l-2 4v4l-4 8v4l-2 4v4l-2 4v4l-2 4v12l-2 4v4l-2 4v4l-2 4v4l-2 4
v4l-2 4v4l-2 4v4l-2 4v4l-4 8h88zM12 815q-2 0 -3 -1t-1 -3v-28l4 -8v-4l2 -4v-4l2 -4v-4l2 -4v-4l2 -4v-4l2 -4v-4l2 -4v-4l2 -4v-4l2 -4v-4l2 -4v-4l2 -4v-4l2 -4v-4l2 -4v-4l2 -4v-4l2 -4v-4l2 -4v-4l2 -4v-4l2 -4v-4l2 -4v-4l2 -4v-4l2 -4v-4l2 -4v-4l2 -4v-4l2 -4v-4
l2 -4v-4l2 -4v-4l2 -4v-4l2 -4v-4l2 -4v-4l2 -4v-4l2 -4v-4l2 -4v-4l2 -4v-4l4 -8v-4l4 -8v-4l4 -8v-4l4 -8v-4l4 -8v-4l12 -24l12 -12h8l12 12l12 24v4l4 8v4l4 8v4l4 8v4l4 8v4l4 8v4l2 4v4l2 4v4l2 4v4l2 4v4l2 4v4l2 4v4l2 4v4l2 4v4l2 4v4l2 4v4l2 4v4l2 4v4l2 4v4l2 4
v4l2 4v4l2 4v4l2 4v4l2 4v4l2 4v4l2 4v4l2 4v4l2 4v4l2 4v4l2 4v4l2 4v4l2 4v4l2 4v4l2 4v4l2 4v4l2 4v4l2 4v4l2 4v4l4 8v28q0 2 -2 3q-1 1 -2 1h-16l-4 -4l-4 -8v-4l-2 -4v-4l-2 -4v-4l-2 -4v-4l-2 -4v-4l-2 -4v-4l-2 -4v-8l-2 -4v-4l-2 -4v-4l-2 -4v-4l-2 -4v-4l-2 -4v-4
l-2 -4v-4l-2 -4v-4l-2 -4v-4l-2 -4v-8l-2 -4v-4l-2 -4v-4l-2 -4v-4l-2 -4v-4l-2 -4l-4 -4h-88l-4 4l-2 4v4l-2 4v4l-2 4v4l-2 4v4l-2 4v8l-2 4v4l-2 4v4l-2 4v4l-2 4v4l-2 4v4l-2 4v4l-2 4v4l-2 4v4l-2 4v8l-2 4v4l-2 4v4l-2 4v4l-2 4v4l-2 4v4l-2 4v4l-4 8l-4 4h-16z" />
</svg>
