<?xml version="1.0" standalone="no"?>
<!DOCTYPE svg PUBLIC "-//W3C//DTD SVG 1.1//EN" "http://www.w3.org/Graphics/SVG/1.1/DTD/svg11.dtd" >
<svg xmlns="http://www.w3.org/2000/svg" xmlns:xlink="http://www.w3.org/1999/xlink" version="1.1" viewBox="-10 0 294 1024">
   <path fill="currentColor"
d="M144 787l8 -4h8l8 -4h4l16 -8l8 -8l8 -16v-4l4 -8v-8l4 -8v-28l-4 -8v-8l-12 -24l-16 -16h-144q-2 0 -3 2q-1 1 -1 2v128l4 4l16 8h8l8 4h8l8 4h60zM180 611l16 -16l8 -16v-4l4 -8v-8l4 -8v-36l-4 -8v-8l-4 -8v-4l-8 -16l-8 -8l-16 -8h-4l-8 -4h-8l-8 -4h-60l-8 4h-8
l-8 4h-8l-16 8l-4 4v140q0 2 1 3t3 1h144zM12 815q-2 0 -3 -1t-1 -3v-388q0 -1 1 -2q1 -2 3 -2h16q1 0 2 2q2 1 2 2v14l20 -10h8l16 -8h68l8 4h8l8 4h4l32 16l16 16l12 24v8l4 8v8l4 8v36l-4 8v8l-4 8v4l-22 44l26 52v8l4 8v28l-4 8v8l-4 8v8l-12 24l-16 16l-32 16h-4l-8 4
h-8l-8 4h-68l-16 -8h-8l-20 -10v14q0 2 -2 3q-1 1 -2 1h-16z" />
</svg>
