<?xml version="1.0" standalone="no"?>
<!DOCTYPE svg PUBLIC "-//W3C//DTD SVG 1.1//EN" "http://www.w3.org/Graphics/SVG/1.1/DTD/svg11.dtd" >
<svg xmlns="http://www.w3.org/2000/svg" xmlns:xlink="http://www.w3.org/1999/xlink" version="1.1" viewBox="-10 0 346 1024">
   <path fill="currentColor"
d="M148 787l8 -4h8l8 -4h4l16 -8l28 -28l4 -8l4 -4l4 -8l4 -4l16 -32v-4l4 -8v-4l8 -16v-76l-8 -16v-4l-4 -8v-4l-16 -32l-4 -4l-4 -8l-4 -4l-4 -8l-28 -28l-16 -8h-4l-8 -4h-8l-8 -4h-64l-8 4h-8l-8 4h-8l-16 8l-4 4v300l4 4l16 8h8l8 4h8l8 4h64zM12 815q-2 0 -3 -1t-1 -3
v-388q0 -1 1 -2q1 -2 3 -2h16q1 0 2 2q2 1 2 2v14l20 -10h8l16 -8h72l8 4h8l8 4h4l32 16l36 36l4 8l4 4l4 8l4 4l16 32v4l4 8v4l8 16v12l4 8v60l-4 8v12l-8 16v4l-4 8v4l-16 32l-4 4l-4 8l-4 4l-4 8l-36 36l-32 16h-4l-8 4h-8l-8 4h-72l-16 -8h-8l-20 -10v14q0 2 -2 3
q-1 1 -2 1h-16z" />
</svg>
