<?xml version="1.0" standalone="no"?>
<!DOCTYPE svg PUBLIC "-//W3C//DTD SVG 1.1//EN" "http://www.w3.org/Graphics/SVG/1.1/DTD/svg11.dtd" >
<svg xmlns="http://www.w3.org/2000/svg" xmlns:xlink="http://www.w3.org/1999/xlink" version="1.1" viewBox="-10 0 294 1024">
   <path fill="currentColor"
d="M12 815q-2 0 -3 -1t-1 -3v-388q0 -1 1 -2q1 -2 3 -2h224q1 0 2 2q2 1 2 2v16q0 2 -2 3q-1 1 -2 1h-200q-2 0 -3 2q-1 1 -1 2v148q0 2 1 3t3 1h104q1 0 2 2q2 1 2 2v16q0 2 -2 3q-1 1 -2 1h-104q-2 0 -3 2q-1 1 -1 2v184q0 2 -2 3q-1 1 -2 1h-16z" />
</svg>
