<?xml version="1.0" standalone="no"?>
<!DOCTYPE svg PUBLIC "-//W3C//DTD SVG 1.1//EN" "http://www.w3.org/Graphics/SVG/1.1/DTD/svg11.dtd" >
<svg xmlns="http://www.w3.org/2000/svg" xmlns:xlink="http://www.w3.org/1999/xlink" version="1.1" viewBox="-10 0 286 1024">
   <path fill="currentColor"
d="M48 815l-8 -4h-8l-8 -4l-16 -16v-20q0 -1 1 -2q1 -2 3 -2h4l16 16h8l8 4h8l8 4h52l8 -4h8l8 -4h8l8 -4h4l16 -8l8 -8l20 -40v-300q0 -1 1 -2q1 -2 3 -2h16q1 0 2 2q2 1 2 2v312l-20 40l-16 16l-32 16h-4l-8 4h-8l-8 4h-84z" />
</svg>
