<?xml version="1.0" standalone="no"?>
<!DOCTYPE svg PUBLIC "-//W3C//DTD SVG 1.1//EN" "http://www.w3.org/Graphics/SVG/1.1/DTD/svg11.dtd" >
<svg xmlns="http://www.w3.org/2000/svg" xmlns:xlink="http://www.w3.org/1999/xlink" version="1.1" viewBox="-10 0 390 1024">
   <path fill="currentColor"
d="M192 787l8 -4h8l8 -4h4l4 -4l-24 -24v-20q0 -1 1 -2q1 -2 3 -2h20l28 28l12 -12l4 -8l4 -4l4 -8l4 -4l16 -32v-4l4 -8v-4l8 -16v-76l-8 -16v-4l-4 -8v-4l-16 -32l-4 -4l-4 -8l-4 -4l-4 -8l-28 -28l-16 -8h-4l-8 -4h-8l-8 -4h-40l-8 4h-8l-8 4h-4l-16 8l-28 28l-4 8l-4 4
l-4 8l-4 4l-16 32v4l-4 8v4l-8 16v76l8 16v4l4 8v4l16 32l4 4l4 8l4 4l4 8l28 28l16 8h4l8 4h8l8 4h40zM152 815l-8 -4h-8l-8 -4h-4l-32 -16l-36 -36l-4 -8l-4 -4l-4 -8l-4 -4l-16 -32v-4l-4 -8v-4l-8 -16v-12l-4 -8v-60l4 -8v-12l8 -16v-4l4 -8v-4l16 -32l4 -4l4 -8l4 -4
l4 -8l36 -36l32 -16h4l8 -4h8l8 -4h40l8 4h8l8 4h4l32 16l36 36l4 8l4 4l4 8l4 4l16 32v4l4 8v4l8 16v12l4 8v60l-4 8v12l-8 16v4l-4 8v4l-16 32l-4 4l-4 8l-4 4l-4 8l-18 18l18 18v20q0 2 -2 3q-1 1 -2 1h-20l-20 -20l-24 12h-4l-8 4h-8l-8 4h-40z" />
</svg>
