<?xml version="1.0" standalone="no"?>
<!DOCTYPE svg PUBLIC "-//W3C//DTD SVG 1.1//EN" "http://www.w3.org/Graphics/SVG/1.1/DTD/svg11.dtd">
<svg xmlns="http://www.w3.org/2000/svg" xmlns:xlink="http://www.w3.org/1999/xlink" version="1.1"
   viewBox="-18 0 286 1024">
   <path fill="currentColor"
      d="M144 815l-8 -4h-8l-8 -4h-4l-32 -16l-16 -16l-12 -24v-8l-4 -8v-8l-4 -8v-128q0 -1 -2 -2q-1 -2 -2 -2h-48q-1 0 -2 -1q-2 -1 -2 -3v-16q0 -1 2 -2q1 -2 2 -2h48q1 0 2 -1q2 -1 2 -3v-136q0 -1 1 -2q1 -2 3 -2h16q1 0 2 2q2 1 2 2v136q0 2 1 3t3 1h68q1 0 2 2q2 1 2 2v16
q0 2 -2 3q-1 1 -2 1h-68q-2 0 -3 2q-1 1 -1 2v112l4 8v8l4 8v8l4 8v4l8 16l8 8l16 8h4l8 4h8l8 4h40l8 -4h8l8 -4h4l4 -4h4q1 0 2 2q2 1 2 2v20l-4 4l-8 4h-4l-8 4h-8l-8 4h-40z" />
</svg>