<?xml version="1.0" standalone="no"?>
<!DOCTYPE svg PUBLIC "-//W3C//DTD SVG 1.1//EN" "http://www.w3.org/Graphics/SVG/1.1/DTD/svg11.dtd" >
<svg xmlns="http://www.w3.org/2000/svg" xmlns:xlink="http://www.w3.org/1999/xlink" version="1.1" viewBox="-10 0 298 1024">
   <path fill="currentColor"
d="M12 815q-2 0 -3 -1t-1 -3v-24l28 -56l8 -8l4 -8l4 -4l8 -16l4 -4l8 -16l4 -4l8 -16l4 -4l8 -16l4 -4l8 -16l4 -4l8 -16l4 -4l4 -8l4 -4l8 -16l4 -4l8 -16l4 -4l4 -8l4 -4l4 -8l4 -4l4 -8l4 -4l4 -8l4 -4l4 -8l4 -4l4 -8l4 -4l4 -8l4 -4l4 -8l4 -4h-204q-2 0 -3 -1t-1 -3
v-16q0 -1 1 -2q1 -2 3 -2h220q1 0 2 2q2 1 2 2v24l-4 4l-8 16l-4 4l-8 16l-4 4l-8 16l-4 4l-8 16l-4 4l-8 16l-4 4l-8 16l-4 4l-8 16l-4 4l-4 8l-4 4l-8 16l-4 4l-8 16l-4 4l-8 16l-4 4l-8 16l-4 4l-8 16l-4 4l-12 24l-4 4l-8 16l-4 4l-8 16l-4 4l-10 20h202q1 0 2 2
q2 1 2 2v16q0 2 -2 3q-1 1 -2 1h-224z" />
</svg>
